<svg id="visual" viewBox="0 0 960 540" width="960" height="540" xmlns="http://www.w3.org/2000/svg" xmlns:xlink="http://www.w3.org/1999/xlink" version="1.1"><path d="M469 0L476.8 15C484.7 30 500.3 60 494.3 90C488.3 120 460.7 150 448.5 180C436.3 210 439.7 240 451.8 270C464 300 485 330 477.2 360C469.3 390 432.7 420 415.8 450C399 480 402 510 403.5 525L405 540L0 540L0 525C0 510 0 480 0 450C0 420 0 390 0 360C0 330 0 300 0 270C0 240 0 210 0 180C0 150 0 120 0 90C0 60 0 30 0 15L0 0Z" fill="#acd7e8"></path><path d="M374 0L351.7 15C329.3 30 284.7 60 281.7 90C278.7 120 317.3 150 331.2 180C345 210 334 240 319.8 270C305.7 300 288.3 330 282.7 360C277 390 283 420 296.7 450C310.3 480 331.7 510 342.3 525L353 540L0 540L0 525C0 510 0 480 0 450C0 420 0 390 0 360C0 330 0 300 0 270C0 240 0 210 0 180C0 150 0 120 0 90C0 60 0 30 0 15L0 0Z" fill="#9bcce0"></path><path d="M258 0L245 15C232 30 206 60 198 90C190 120 200 150 215.2 180C230.3 210 250.7 240 256.3 270C262 300 253 330 256 360C259 390 274 420 282 450C290 480 291 510 291.5 525L292 540L0 540L0 525C0 510 0 480 0 450C0 420 0 390 0 360C0 330 0 300 0 270C0 240 0 210 0 180C0 150 0 120 0 90C0 60 0 30 0 15L0 0Z" fill="#89c2d8"></path><path d="M157 0L145.8 15C134.7 30 112.3 60 105.5 90C98.7 120 107.3 150 108.8 180C110.3 210 104.7 240 115.7 270C126.7 300 154.3 330 159.5 360C164.7 390 147.3 420 134.5 450C121.7 480 113.3 510 109.2 525L105 540L0 540L0 525C0 510 0 480 0 450C0 420 0 390 0 360C0 330 0 300 0 270C0 240 0 210 0 180C0 150 0 120 0 90C0 60 0 30 0 15L0 0Z" fill="#78b7d0"></path></svg>